<mxfile host="app.diagrams.net" modified="2024-02-20T13:00:02.930Z" agent="Mozilla/5.0 (Windows NT 10.0; Win64; x64) AppleWebKit/537.36 (KHTML, like Gecko) Chrome/121.0.0.0 Safari/537.36" etag="2AVvy8rySQP_5UJ427oI" version="23.1.5" type="github">
  <diagram name="Página-1" id="c04ZVbYorzEbiDTh9iGR">
    <mxGraphModel dx="1195" dy="622" grid="1" gridSize="10" guides="1" tooltips="1" connect="1" arrows="1" fold="1" page="1" pageScale="1" pageWidth="1169" pageHeight="827" math="0" shadow="0">
      <root>
        <mxCell id="0" />
        <mxCell id="1" parent="0" />
        <mxCell id="eHCsVr1nam7DjOxQ-WiU-1" value="cabecera" style="swimlane;whiteSpace=wrap;html=1;startSize=50;" vertex="1" parent="1">
          <mxGeometry x="50" y="60" width="680" height="680" as="geometry" />
        </mxCell>
        <mxCell id="eHCsVr1nam7DjOxQ-WiU-5" value="" style="swimlane;whiteSpace=wrap;html=1;startSize=0;" vertex="1" parent="eHCsVr1nam7DjOxQ-WiU-1">
          <mxGeometry x="50" y="80" width="150" height="220" as="geometry" />
        </mxCell>
        <mxCell id="eHCsVr1nam7DjOxQ-WiU-6" value="&lt;font color=&quot;#8c8c8c&quot;&gt;imagen&lt;/font&gt;" style="ellipse;whiteSpace=wrap;html=1;strokeColor=#8C8C8C;" vertex="1" parent="eHCsVr1nam7DjOxQ-WiU-5">
          <mxGeometry x="30" y="24" width="90" height="70" as="geometry" />
        </mxCell>
        <mxCell id="eHCsVr1nam7DjOxQ-WiU-8" value="" style="endArrow=none;html=1;rounded=0;strokeColor=#8C8C8C;" edge="1" parent="eHCsVr1nam7DjOxQ-WiU-5">
          <mxGeometry width="50" height="50" relative="1" as="geometry">
            <mxPoint x="45" y="114" as="sourcePoint" />
            <mxPoint x="105" y="114" as="targetPoint" />
          </mxGeometry>
        </mxCell>
        <mxCell id="eHCsVr1nam7DjOxQ-WiU-9" value="&lt;font color=&quot;#8c8c8c&quot;&gt;hr&lt;/font&gt;" style="text;html=1;align=center;verticalAlign=middle;resizable=0;points=[];autosize=1;strokeColor=none;fillColor=none;" vertex="1" parent="eHCsVr1nam7DjOxQ-WiU-5">
          <mxGeometry x="60" y="94" width="30" height="30" as="geometry" />
        </mxCell>
        <mxCell id="eHCsVr1nam7DjOxQ-WiU-10" value="&lt;font color=&quot;#8c8c8c&quot;&gt;titulo h1&lt;/font&gt;" style="text;html=1;align=center;verticalAlign=middle;resizable=0;points=[];autosize=1;strokeColor=none;fillColor=none;" vertex="1" parent="eHCsVr1nam7DjOxQ-WiU-5">
          <mxGeometry x="40" width="70" height="30" as="geometry" />
        </mxCell>
        <mxCell id="eHCsVr1nam7DjOxQ-WiU-11" value="&lt;font color=&quot;#8c8c8c&quot;&gt;contenido&lt;/font&gt;" style="whiteSpace=wrap;html=1;aspect=fixed;strokeColor=#8C8C8C;" vertex="1" parent="eHCsVr1nam7DjOxQ-WiU-5">
          <mxGeometry x="35" y="130" width="80" height="80" as="geometry" />
        </mxCell>
        <mxCell id="eHCsVr1nam7DjOxQ-WiU-12" value="" style="swimlane;whiteSpace=wrap;html=1;startSize=0;" vertex="1" parent="eHCsVr1nam7DjOxQ-WiU-1">
          <mxGeometry x="50" y="310" width="150" height="40" as="geometry" />
        </mxCell>
        <mxCell id="eHCsVr1nam7DjOxQ-WiU-19" value="Menú Auxiliar&amp;nbsp;" style="text;html=1;align=center;verticalAlign=middle;resizable=0;points=[];autosize=1;strokeColor=none;fillColor=none;" vertex="1" parent="eHCsVr1nam7DjOxQ-WiU-12">
          <mxGeometry x="25" y="5" width="100" height="30" as="geometry" />
        </mxCell>
        <mxCell id="eHCsVr1nam7DjOxQ-WiU-20" value="" style="swimlane;whiteSpace=wrap;html=1;startSize=0;" vertex="1" parent="eHCsVr1nam7DjOxQ-WiU-1">
          <mxGeometry x="215" y="80" width="305" height="230" as="geometry" />
        </mxCell>
        <mxCell id="eHCsVr1nam7DjOxQ-WiU-26" value="Formulario" style="text;html=1;align=center;verticalAlign=middle;resizable=0;points=[];autosize=1;strokeColor=none;fillColor=none;" vertex="1" parent="eHCsVr1nam7DjOxQ-WiU-20">
          <mxGeometry x="115" y="95" width="80" height="30" as="geometry" />
        </mxCell>
        <mxCell id="eHCsVr1nam7DjOxQ-WiU-27" value="" style="swimlane;whiteSpace=wrap;html=1;startSize=0;" vertex="1" parent="eHCsVr1nam7DjOxQ-WiU-1">
          <mxGeometry x="535" y="80" width="105" height="150" as="geometry" />
        </mxCell>
        <mxCell id="eHCsVr1nam7DjOxQ-WiU-34" value="" style="swimlane;whiteSpace=wrap;html=1;startSize=0;" vertex="1" parent="eHCsVr1nam7DjOxQ-WiU-1">
          <mxGeometry x="215" y="320" width="305" height="270" as="geometry" />
        </mxCell>
        <mxCell id="eHCsVr1nam7DjOxQ-WiU-38" value="&lt;font color=&quot;#8c8c8c&quot;&gt;imagen&lt;/font&gt;" style="ellipse;whiteSpace=wrap;html=1;strokeColor=#8C8C8C;" vertex="1" parent="eHCsVr1nam7DjOxQ-WiU-34">
          <mxGeometry x="15" y="10" width="65" height="30" as="geometry" />
        </mxCell>
        <mxCell id="eHCsVr1nam7DjOxQ-WiU-39" value="&lt;font color=&quot;#8c8c8c&quot;&gt;titulo h1&lt;/font&gt;" style="text;html=1;align=center;verticalAlign=middle;resizable=0;points=[];autosize=1;strokeColor=none;fillColor=none;" vertex="1" parent="eHCsVr1nam7DjOxQ-WiU-34">
          <mxGeometry x="80" y="10" width="70" height="30" as="geometry" />
        </mxCell>
        <mxCell id="eHCsVr1nam7DjOxQ-WiU-40" value="&lt;font color=&quot;#8c8c8c&quot;&gt;span&lt;/font&gt;" style="text;html=1;align=center;verticalAlign=middle;resizable=0;points=[];autosize=1;strokeColor=none;fillColor=none;" vertex="1" parent="eHCsVr1nam7DjOxQ-WiU-34">
          <mxGeometry x="235" y="10" width="50" height="30" as="geometry" />
        </mxCell>
        <mxCell id="eHCsVr1nam7DjOxQ-WiU-42" value="&lt;font color=&quot;#8c8c8c&quot;&gt;hr&lt;/font&gt;" style="text;html=1;align=center;verticalAlign=middle;resizable=0;points=[];autosize=1;strokeColor=none;fillColor=none;" vertex="1" parent="eHCsVr1nam7DjOxQ-WiU-34">
          <mxGeometry x="137.5" y="40" width="30" height="30" as="geometry" />
        </mxCell>
        <mxCell id="eHCsVr1nam7DjOxQ-WiU-44" value="" style="endArrow=none;html=1;rounded=0;strokeColor=#8C8C8C;" edge="1" parent="eHCsVr1nam7DjOxQ-WiU-34">
          <mxGeometry width="50" height="50" relative="1" as="geometry">
            <mxPoint x="7.5" y="59.80000000000001" as="sourcePoint" />
            <mxPoint x="297.5" y="59.80000000000001" as="targetPoint" />
          </mxGeometry>
        </mxCell>
        <mxCell id="eHCsVr1nam7DjOxQ-WiU-45" value="&lt;font color=&quot;#8c8c8c&quot;&gt;titulo h2&lt;/font&gt;" style="text;html=1;align=center;verticalAlign=middle;resizable=0;points=[];autosize=1;strokeColor=none;fillColor=none;" vertex="1" parent="eHCsVr1nam7DjOxQ-WiU-34">
          <mxGeometry x="12.5" y="60" width="70" height="30" as="geometry" />
        </mxCell>
        <mxCell id="eHCsVr1nam7DjOxQ-WiU-46" value="&lt;font color=&quot;#8c8c8c&quot;&gt;contenido&lt;br&gt;&lt;/font&gt;" style="text;html=1;align=center;verticalAlign=middle;resizable=0;points=[];autosize=1;strokeColor=none;fillColor=none;" vertex="1" parent="eHCsVr1nam7DjOxQ-WiU-34">
          <mxGeometry x="10" y="80" width="80" height="30" as="geometry" />
        </mxCell>
        <mxCell id="eHCsVr1nam7DjOxQ-WiU-47" value="" style="swimlane;startSize=0;strokeColor=#d6b656;fillColor=#fff2cc;fillStyle=solid;" vertex="1" parent="eHCsVr1nam7DjOxQ-WiU-34">
          <mxGeometry x="23.130000000000003" y="110" width="183.75" height="70" as="geometry" />
        </mxCell>
        <mxCell id="eHCsVr1nam7DjOxQ-WiU-48" value="&lt;font color=&quot;#8c8c8c&quot;&gt;Imagen&lt;/font&gt;" style="text;html=1;align=center;verticalAlign=middle;resizable=0;points=[];autosize=1;strokeColor=none;fillColor=none;" vertex="1" parent="eHCsVr1nam7DjOxQ-WiU-47">
          <mxGeometry x="61.870000000000005" y="20" width="60" height="30" as="geometry" />
        </mxCell>
        <mxCell id="eHCsVr1nam7DjOxQ-WiU-61" value="" style="swimlane;startSize=0;strokeColor=#d6b656;fillColor=#fff2cc;fillStyle=solid;" vertex="1" parent="eHCsVr1nam7DjOxQ-WiU-34">
          <mxGeometry x="23.129999999999995" y="190" width="120" height="25" as="geometry" />
        </mxCell>
        <mxCell id="eHCsVr1nam7DjOxQ-WiU-62" value="&lt;font color=&quot;#8c8c8c&quot;&gt;enlace&lt;/font&gt;" style="text;html=1;align=center;verticalAlign=middle;resizable=0;points=[];autosize=1;strokeColor=none;fillColor=none;" vertex="1" parent="eHCsVr1nam7DjOxQ-WiU-61">
          <mxGeometry x="30.000000000000004" y="-2.5" width="60" height="30" as="geometry" />
        </mxCell>
        <mxCell id="eHCsVr1nam7DjOxQ-WiU-63" value="&lt;font color=&quot;#8c8c8c&quot;&gt;boton&lt;/font&gt;" style="ellipse;whiteSpace=wrap;html=1;strokeColor=#8C8C8C;" vertex="1" parent="eHCsVr1nam7DjOxQ-WiU-34">
          <mxGeometry x="23.13" y="230" width="37.5" height="25" as="geometry" />
        </mxCell>
        <mxCell id="eHCsVr1nam7DjOxQ-WiU-64" value="&lt;font color=&quot;#8c8c8c&quot;&gt;boton&lt;/font&gt;" style="ellipse;whiteSpace=wrap;html=1;strokeColor=#8C8C8C;" vertex="1" parent="eHCsVr1nam7DjOxQ-WiU-34">
          <mxGeometry x="64.38" y="230" width="37.5" height="25" as="geometry" />
        </mxCell>
        <mxCell id="eHCsVr1nam7DjOxQ-WiU-65" value="&lt;font color=&quot;#8c8c8c&quot;&gt;boton&lt;/font&gt;" style="ellipse;whiteSpace=wrap;html=1;strokeColor=#8C8C8C;" vertex="1" parent="eHCsVr1nam7DjOxQ-WiU-34">
          <mxGeometry x="247.5" y="230" width="37.5" height="25" as="geometry" />
        </mxCell>
        <mxCell id="eHCsVr1nam7DjOxQ-WiU-37" value="" style="swimlane;whiteSpace=wrap;html=1;startSize=0;" vertex="1" parent="eHCsVr1nam7DjOxQ-WiU-1">
          <mxGeometry x="535" y="250" width="105" height="150" as="geometry" />
        </mxCell>
        <mxCell id="eHCsVr1nam7DjOxQ-WiU-2" value="&lt;i&gt;&lt;font color=&quot;#d1d1d1&quot;&gt;Logo NMS&lt;/font&gt;&lt;/i&gt;" style="text;html=1;align=center;verticalAlign=middle;whiteSpace=wrap;rounded=0;" vertex="1" parent="1">
          <mxGeometry x="660" y="70" width="60" height="30" as="geometry" />
        </mxCell>
        <mxCell id="eHCsVr1nam7DjOxQ-WiU-3" style="edgeStyle=orthogonalEdgeStyle;rounded=0;orthogonalLoop=1;jettySize=auto;html=1;exitX=0.5;exitY=1;exitDx=0;exitDy=0;" edge="1" parent="1" source="eHCsVr1nam7DjOxQ-WiU-2" target="eHCsVr1nam7DjOxQ-WiU-2">
          <mxGeometry relative="1" as="geometry" />
        </mxCell>
      </root>
    </mxGraphModel>
  </diagram>
</mxfile>
